<svg xmlns="http://www.w3.org/2000/svg" width="20" height="20" fill="none" viewBox="0 0 20 20"><g clip-path="url(#a)"><path fill="currentColor" d="M13 0c2.45 0 3.675 0 4.611.477a4.38 4.38 0 0 1 1.912 1.912C20 3.325 20 4.549 20 7v1c0 2.45 0 3.675-.477 4.611l-.168.301a4.4 4.4 0 0 1-1.744 1.611l-.18.084c-.606.26-1.348.347-2.449.376-.032 1.212-.132 1.988-.459 2.628l-.168.301a4.4 4.4 0 0 1-1.744 1.611l-.18.084c-.67.288-1.505.365-2.808.385L8 20H7l-1.623-.008c-1.303-.02-2.138-.097-2.809-.385l-.18-.084a4.4 4.4 0 0 1-1.742-1.61l-.17-.302C.12 16.91.03 16.045.009 14.623L0 13v-1c0-2.45 0-3.675.477-4.611a4.38 4.38 0 0 1 1.912-1.912c.64-.327 1.417-.428 2.63-.46.031-1.212.131-1.988.458-2.628A4.38 4.38 0 0 1 7.389.477C8.325 0 9.549 0 12 0zM7 7c-1.258 0-2.082.001-2.71.053-.606.05-.854.135-.993.206-.447.227-.81.591-1.038 1.038-.071.139-.157.387-.206.992C2 9.92 2 10.742 2 12v1c0 1.258.001 2.082.053 2.71.05.606.135.854.206.993.227.447.591.81 1.038 1.038.139.071.387.157.992.206C4.92 18 5.742 18 7 18h1c1.258 0 2.082-.001 2.71-.053.606-.05.854-.135.993-.206.447-.227.81-.591 1.038-1.038.071-.139.157-.387.206-.992C13 15.08 13 14.258 13 13v-1c0-1.258-.001-2.082-.053-2.71-.05-.606-.135-.854-.206-.993a2.38 2.38 0 0 0-1.038-1.038c-.139-.071-.387-.157-.992-.206C10.08 7 9.258 7 8 7zm5-5c-1.258 0-2.082.001-2.71.053-.606.05-.854.135-.993.206-.447.227-.81.591-1.038 1.038-.071.139-.157.387-.206.992-.018.212-.027.446-.034.711H8c2.45 0 3.675 0 4.611.477a4.38 4.38 0 0 1 1.912 1.912C15 8.325 15 9.549 15 12v.981q.396-.009.71-.034c.606-.05.854-.135.993-.206.447-.227.81-.591 1.038-1.038.071-.139.157-.387.206-.992C18 10.08 18 9.258 18 8V7c0-1.258-.001-2.082-.053-2.71-.05-.606-.135-.854-.206-.993a2.38 2.38 0 0 0-1.038-1.038c-.139-.071-.387-.157-.992-.206C15.08 2 14.258 2 13 2z"/></g><defs><clipPath id="a"><path fill="#fff" d="M0 0h20v20H0z"/></clipPath></defs></svg>