<svg viewBox="0 0 28 28" fill="none" xmlns="http://www.w3.org/2000/svg">
<g id="28 / ic-clock-28">
<path id="Shape" d="M14 2.75C20.2132 2.75 25.25 7.7868 25.25 14C25.25 20.2132 20.2132 25.25 14 25.25C7.7868 25.25 2.75 20.2132 2.75 14C2.75 7.7868 7.7868 2.75 14 2.75ZM14 7C13.1716 7 12.5 7.67157 12.5 8.5V14C12.5 14.3978 12.6581 14.7792 12.9395 15.0605L16.4395 18.5605C17.0252 19.1463 17.9748 19.1463 18.5605 18.5605C19.1463 17.9748 19.1463 17.0252 18.5605 16.4395L15.5 13.3789V8.5C15.5 7.67157 14.8284 7 14 7Z" fill="#8994A3"/>
<path id="Shape_2" opacity="0.32" d="M14 7C14.8284 7 15.5 7.67157 15.5 8.5V13.3789L18.5605 16.4395C19.1463 17.0252 19.1463 17.9748 18.5605 18.5605C17.9748 19.1463 17.0252 19.1463 16.4395 18.5605L12.9395 15.0605C12.6581 14.7792 12.5 14.3978 12.5 14V8.5C12.5 7.67157 13.1716 7 14 7Z" fill="#8994A3"/>
</g>
</svg>
