<svg viewBox="0 0 56 56" fill="none" xmlns="http://www.w3.org/2000/svg">
  <path d="M28 5.5C40.4264 5.5 50.5 15.5736 50.5 28C50.5 40.4264 40.4264 50.5 28 50.5C15.5736 50.5 5.5 40.4264 5.5 28C5.5 15.5736 15.5736 5.5 28 5.5ZM28 14C26.3431 14 25 15.3431 25 17V28C25 28.7956 25.3163 29.5585 25.8789 30.1211L32.8789 37.1211C34.0505 38.2927 35.9495 38.2927 37.1211 37.1211C38.2927 35.9495 38.2927 34.0505 37.1211 32.8789L31 26.7578V17C31 15.3431 29.6569 14 28 14Z" fill="currentColor"/>
  <path opacity="0.32" d="M28 14C29.6569 14 31 15.3431 31 17V26.7578L37.1211 32.8789C38.2927 34.0505 38.2927 35.9495 37.1211 37.1211C35.9495 38.2927 34.0505 38.2927 32.8789 37.1211L25.8789 30.1211C25.3163 29.5585 25 28.7956 25 28V17C25 15.3431 26.3431 14 28 14Z" fill="currentColor"/>
</svg>
