<svg viewBox="0 0 28 28" fill="none" xmlns="http://www.w3.org/2000/svg">
<g id="28 / ic-explore-28">
<g id="Shape">
<path d="M15.75 14C15.75 14.9665 14.9665 15.75 14 15.75C13.0335 15.75 12.25 14.9665 12.25 14C12.25 13.0335 13.0335 12.25 14 12.25C14.9665 12.25 15.75 13.0335 15.75 14Z" fill="#8994A3"/>
<path fill-rule="evenodd" clip-rule="evenodd" d="M14 25.25C20.2132 25.25 25.25 20.2132 25.25 14C25.25 7.7868 20.2132 2.75 14 2.75C7.7868 2.75 2.75 7.7868 2.75 14C2.75 20.2132 7.7868 25.25 14 25.25ZM14.6363 8.98406C17.5129 7.96329 18.9513 7.45291 19.7268 8.16155C19.7657 8.19702 19.8028 8.23421 19.8383 8.27302C20.547 9.04858 20.0366 10.4869 19.0159 13.3636L18.472 14.8965C18.0214 16.1665 17.7961 16.8015 17.3448 17.2691C17.3201 17.2947 17.2949 17.3199 17.2694 17.3445C16.8017 17.7958 16.1668 18.0211 14.8968 18.4718L13.3638 19.0157C10.4871 20.0365 9.04871 20.5469 8.27314 19.8382C8.23433 19.8027 8.19714 19.7655 8.16167 19.7267C7.45302 18.9511 7.96343 17.5128 8.98425 14.6361L9.52826 13.1031C9.97889 11.8332 10.2042 11.1982 10.6555 10.7306C10.6802 10.7051 10.7053 10.6799 10.7309 10.6552C11.1985 10.204 11.8334 9.97867 13.1033 9.52805L14.6363 8.98406Z" fill="#8994A3"/>
</g>
<path id="Shape_2" opacity="0.32" fill-rule="evenodd" clip-rule="evenodd" d="M19.7268 8.16155C18.9513 7.45291 17.5129 7.96329 14.6363 8.98406L13.1033 9.52805C11.8334 9.97867 11.1985 10.204 10.7309 10.6552C10.7053 10.6799 10.6802 10.7051 10.6555 10.7306C10.2042 11.1982 9.97889 11.8332 9.52826 13.1031L8.98425 14.6361C7.96343 17.5128 7.45302 18.9511 8.16167 19.7267C8.19714 19.7655 8.23433 19.8027 8.27314 19.8382C9.04871 20.5469 10.4871 20.0365 13.3638 19.0157L14.8968 18.4718C16.1668 18.0211 16.8017 17.7958 17.2694 17.3445C17.2949 17.3199 17.3201 17.2947 17.3448 17.2691C17.7961 16.8015 18.0214 16.1665 18.472 14.8965L19.0159 13.3636C20.0366 10.4869 20.547 9.04858 19.8383 8.27302C19.8028 8.23421 19.7657 8.19702 19.7268 8.16155ZM14 15.75C14.9665 15.75 15.75 14.9665 15.75 14C15.75 13.0335 14.9665 12.25 14 12.25C13.0335 12.25 12.25 13.0335 12.25 14C12.25 14.9665 13.0335 15.75 14 15.75Z" fill="#8994A3"/>
</g>
</svg>
