<svg viewBox="0 0 28 28" fill="none" xmlns="http://www.w3.org/2000/svg">
<g id="28 / ic-gear-28">
<path id="Shape" fill-rule="evenodd" clip-rule="evenodd" d="M11.1718 3.14148C10.7889 3.55511 10.6664 4.16806 10.4212 5.39398L10.3287 5.85609C10.2623 6.18841 10.0426 6.46781 9.7493 6.63754C9.45543 6.80757 9.1045 6.85751 8.78289 6.74871L8.3364 6.59767C7.15213 6.19705 6.56 5.99674 6.01037 6.12147C5.83151 6.16206 5.65908 6.22706 5.49793 6.31464C5.00274 6.58378 4.69019 7.12513 4.06509 8.20783L4.01639 8.29219C3.39129 9.37489 3.07874 9.91624 3.09326 10.4797C3.09798 10.663 3.1279 10.8448 3.18218 11.02C3.34898 11.5584 3.81852 11.971 4.7576 12.7963L5.11329 13.1089C5.36771 13.3325 5.49997 13.6613 5.49997 14C5.49997 14.3387 5.36771 14.6675 5.11329 14.8911L4.7576 15.2037C3.81852 16.029 3.34898 16.4416 3.18218 16.98C3.1279 17.1552 3.09798 17.337 3.09326 17.5203C3.07874 18.0838 3.39129 18.6251 4.01639 19.7078L4.06509 19.7922C4.69019 20.8749 5.00274 21.4162 5.49793 21.6854C5.65908 21.7729 5.83151 21.8379 6.01037 21.8785C6.56 22.0033 7.15213 21.803 8.3364 21.4023L8.78289 21.2513C9.1045 21.1425 9.45543 21.1924 9.7493 21.3625C10.0426 21.5322 10.2623 21.8116 10.3287 22.1439L10.4212 22.606C10.6664 23.8319 10.7889 24.4449 11.1718 24.8585C11.2964 24.9931 11.4389 25.11 11.5953 25.2057C12.076 25.5 12.7011 25.5 13.9513 25.5H14.0487C15.2989 25.5 15.924 25.5 16.4046 25.2057C16.5611 25.11 16.7036 24.9931 16.8282 24.8585C17.211 24.4449 17.3336 23.8319 17.5788 22.606L17.6712 22.1439C17.7376 21.8116 17.9573 21.5322 18.2506 21.3625C18.5445 21.1924 18.8954 21.1425 19.217 21.2513L19.6635 21.4023C20.8478 21.803 21.4399 22.0033 21.9896 21.8786C22.1684 21.838 22.3409 21.773 22.502 21.6854C22.9972 21.4162 23.3097 20.8749 23.9348 19.7922L23.9835 19.7078C24.6086 18.6251 24.9212 18.0838 24.9067 17.5204C24.902 17.337 24.872 17.1552 24.8178 16.98C24.651 16.4416 24.1814 16.029 23.2423 15.2037L22.8867 14.8911C22.6322 14.6675 22.5 14.3387 22.5 14C22.5 13.6613 22.6322 13.3325 22.8867 13.1089L23.2423 12.7963C24.1814 11.971 24.651 11.5584 24.8178 11.02C24.872 10.8448 24.902 10.663 24.9067 10.4796C24.9212 9.91622 24.6086 9.37487 23.9835 8.29217L23.9348 8.20781C23.3097 7.12511 22.9972 6.58376 22.502 6.31462C22.3409 6.22704 22.1684 6.16204 21.9896 6.12145C21.4399 5.99672 20.8478 6.19703 19.6635 6.59765L19.217 6.74871C18.8954 6.8575 18.5445 6.80756 18.2506 6.63753C17.9573 6.46781 17.7376 6.18841 17.6712 5.8561L17.5788 5.39398C17.3336 4.16806 17.211 3.55511 16.8282 3.14148C16.7036 3.00687 16.5611 2.89005 16.4046 2.79428C15.924 2.5 15.2989 2.5 14.0487 2.5H13.9513C12.7011 2.5 12.076 2.5 11.5953 2.79428C11.4389 2.89005 11.2964 3.00687 11.1718 3.14148ZM14 18C16.2091 18 18 16.2091 18 14C18 11.7909 16.2091 10 14 10C11.7909 10 10 11.7909 10 14C10 16.2091 11.7909 18 14 18Z" fill="#8994A3"/>
<path id="Shape_2" opacity="0.32" d="M18 14C18 16.2091 16.2091 18 14 18C11.7909 18 10 16.2091 10 14C10 11.7909 11.7909 10 14 10C16.2091 10 18 11.7909 18 14Z" fill="#8994A3"/>
</g>
</svg>
