<svg xmlns="http://www.w3.org/2000/svg" width="12" height="12" fill="none" viewBox="0 0 12 12"><path fill="white" d="M6 0C9.31371 0 12 2.68629 12 6C12 9.31371 9.31371 12 6 12C2.68629 12 0 9.31371 0 6C0 2.68629 2.68629 0 6 0ZM6 7.7002C5.50312 7.70025 5.1008 8.10276 5.10059 8.59961C5.10059 9.09663 5.50299 9.49995 6 9.5C6.49706 9.5 6.90039 9.09667 6.90039 8.59961C6.90018 8.10273 6.49693 7.7002 6 7.7002ZM6 2.5C5.58579 2.5 5.25 2.83579 5.25 3.25V5.9502C5.25011 6.36432 5.58585 6.7002 6 6.7002C6.41415 6.7002 6.74989 6.36432 6.75 5.9502V3.25C6.75 2.83579 6.41421 2.5 6 2.5Z"/></svg>
