<svg xmlns="http://www.w3.org/2000/svg" width="28" height="28" fill="none" viewBox="0 0 28 28"><path fill="currentColor" d="M16.82 20.565c.586 0 .88 0 1.104.114.197.1.357.26.458.458.114.224.114.517.114 1.103v.097c0 .586 0 .88-.114 1.103-.1.197-.261.358-.458.458-.224.115-.518.115-1.105.115h-.095c-.587 0-.88 0-1.105-.115a1.05 1.05 0 0 1-.457-.458c-.114-.224-.114-.517-.114-1.103v-.097c0-.586 0-.88.114-1.103.1-.197.26-.358.457-.458.224-.114.518-.114 1.105-.114zm5.517 0c.586 0 .88 0 1.103.114.197.1.358.26.458.458.114.224.115.517.115 1.103v.097c0 .586 0 .88-.115 1.103-.1.197-.26.358-.458.458-.224.114-.517.115-1.103.115h-.097c-.586 0-.88 0-1.103-.115-.197-.1-.358-.26-.458-.458-.114-.224-.114-.517-.114-1.103v-.097c0-.586 0-.88.114-1.103.1-.197.26-.358.458-.458.224-.114.517-.114 1.103-.114zM9.15 15.081c.472 0 .887 0 1.228.027.353.03.715.093 1.066.272.517.263.936.684 1.2 1.2.178.351.243.714.272 1.067.028.34.027.755.027 1.227v1.31c0 .472 0 .887-.027 1.228-.029.353-.094.715-.272 1.067a2.75 2.75 0 0 1-1.2 1.199c-.35.179-.713.243-1.066.272-.341.028-.756.027-1.228.027h-1.31c-.472 0-.887.001-1.228-.027-.353-.029-.715-.093-1.066-.272a2.75 2.75 0 0 1-1.2-1.2c-.18-.35-.243-.713-.272-1.066-.028-.34-.027-.756-.027-1.227v-1.311c0-.472 0-.887.027-1.227.029-.353.093-.716.272-1.067a2.75 2.75 0 0 1 1.2-1.2c.351-.179.713-.243 1.066-.272.341-.027.756-.027 1.228-.027zm-1.31 2c-.505 0-.825 0-1.066.02-.228.02-.298.05-.32.061a.75.75 0 0 0-.326.326c-.012.023-.042.093-.06.32-.02.241-.021.561-.021 1.066v1.31c0 .505 0 .824.02 1.065.019.228.05.299.06.321.072.14.187.254.327.325.022.012.092.043.32.062.241.02.56.02 1.066.02h1.31c.505 0 .824 0 1.065-.02.229-.019.299-.05.321-.061a.75.75 0 0 0 .325-.326c.012-.022.043-.093.062-.321.02-.24.02-.56.02-1.064v-1.311c0-.505 0-.825-.02-1.065-.019-.228-.05-.298-.062-.32a.75.75 0 0 0-.325-.327c-.022-.011-.093-.042-.321-.06-.241-.02-.56-.021-1.065-.021zm8.978-2.034c.587 0 .88 0 1.105.114.197.1.357.26.458.457.114.224.114.518.114 1.105v.095c0 .587 0 .88-.114 1.105-.1.197-.261.357-.458.458-.224.114-.518.114-1.105.114h-.095c-.587 0-.88 0-1.105-.114a1.05 1.05 0 0 1-.457-.458c-.114-.224-.114-.518-.114-1.105v-.095c0-.587 0-.88.114-1.105.1-.197.26-.357.457-.457.224-.114.518-.114 1.105-.114zm5.518 0c.586 0 .88 0 1.103.114.197.1.358.26.458.457.115.224.115.518.115 1.105v.095c0 .587 0 .88-.115 1.105-.1.197-.26.357-.458.458-.224.114-.517.114-1.103.114h-.097c-.586 0-.88 0-1.103-.114-.197-.1-.358-.261-.458-.458-.114-.224-.114-.518-.114-1.105v-.095c0-.587 0-.88.114-1.105.1-.197.26-.357.458-.457.224-.114.517-.114 1.103-.114zm-13.186-11c.472 0 .887 0 1.228.027.353.029.715.093 1.066.272.517.263.936.684 1.2 1.2.178.351.243.713.272 1.066.028.341.027.756.027 1.228v1.31c0 .472 0 .887-.027 1.228-.029.353-.094.715-.272 1.066a2.75 2.75 0 0 1-1.2 1.2c-.35.178-.713.243-1.066.272-.341.028-.756.027-1.228.027h-1.31c-.472 0-.887 0-1.228-.027-.353-.029-.715-.094-1.066-.272a2.75 2.75 0 0 1-1.2-1.2c-.18-.35-.243-.713-.272-1.066-.028-.341-.027-.756-.027-1.228v-1.31c0-.472 0-.887.027-1.228.029-.353.093-.715.272-1.066a2.75 2.75 0 0 1 1.2-1.2c.351-.18.713-.243 1.066-.272.341-.028.756-.027 1.228-.027zm11.035 0c.471 0 .886 0 1.227.027.353.029.715.093 1.067.272.516.263.936.684 1.199 1.2.179.351.243.713.272 1.066.028.341.027.756.027 1.228v1.31c0 .472.001.887-.027 1.228-.029.353-.093.715-.272 1.066a2.75 2.75 0 0 1-1.2 1.2c-.35.178-.713.243-1.066.272-.341.028-.756.027-1.227.027h-1.311c-.472 0-.887 0-1.227-.027-.353-.029-.716-.094-1.067-.272a2.75 2.75 0 0 1-1.2-1.2c-.179-.35-.243-.713-.272-1.066-.027-.341-.027-.756-.027-1.228v-1.31c0-.472 0-.887.027-1.228.03-.353.093-.715.272-1.066a2.75 2.75 0 0 1 1.2-1.2c.351-.18.714-.243 1.067-.272.34-.028.755-.027 1.227-.027zm-12.345 2c-.505 0-.825 0-1.066.02-.228.02-.298.05-.32.06a.75.75 0 0 0-.326.327c-.011.022-.042.092-.06.32-.02.241-.021.56-.021 1.066v1.31c0 .505 0 .824.02 1.065.019.228.05.299.06.321.072.14.187.254.327.325.022.012.092.043.32.062.241.02.56.02 1.066.02h1.31c.505 0 .824 0 1.065-.02.229-.019.299-.05.321-.062a.75.75 0 0 0 .325-.325c.012-.022.043-.092.062-.321.02-.241.02-.56.02-1.065v-1.31c0-.505 0-.825-.02-1.066-.019-.228-.05-.298-.062-.32a.75.75 0 0 0-.325-.326c-.022-.012-.093-.042-.321-.06-.241-.02-.56-.021-1.065-.021zm11.034 0c-.505 0-.825 0-1.065.02-.228.019-.298.05-.32.06a.75.75 0 0 0-.327.327c-.011.022-.042.092-.06.32-.02.241-.021.56-.021 1.066v1.31c0 .505 0 .824.02 1.065.02.228.05.299.061.321.072.14.186.254.326.325.023.012.092.043.32.062.241.02.561.02 1.066.02h1.31c.505 0 .824 0 1.065-.02.229-.019.299-.05.321-.062a.75.75 0 0 0 .325-.325c.012-.022.043-.093.062-.321.02-.241.02-.56.02-1.065v-1.31c0-.505 0-.825-.02-1.066-.019-.228-.05-.298-.061-.32a.75.75 0 0 0-.326-.326c-.022-.012-.093-.042-.321-.06-.24-.02-.56-.021-1.064-.021z"/></svg>