<svg xmlns="http://www.w3.org/2000/svg" width="44" height="44" fill="none" viewBox="0 0 44 44"><g fill="#45aef5" clip-path="url(#a)"><path d="M0 0h44v44H0z" opacity=".12"/><g fill-rule="evenodd" clip-rule="evenodd" opacity=".32"><path d="M23.5 15c0-1.4 0-2.1.273-2.635a2.5 2.5 0 0 1 1.092-1.092C25.4 11 26.1 11 27.5 11H29c1.4 0 2.1 0 2.635.273a2.5 2.5 0 0 1 1.092 1.092C33 12.9 33 13.6 33 15v1.5c0 1.4 0 2.1-.273 2.635a2.5 2.5 0 0 1-1.092 1.092C31.1 20.5 30.4 20.5 29 20.5h-1.5c-1.4 0-2.1 0-2.635-.273a2.5 2.5 0 0 1-1.092-1.092C23.5 18.6 23.5 17.9 23.5 16.5zm4-1H29a59 59 0 0 1 .994.006l.002.114c.004.242.004.523.004.88v1.5a59 59 0 0 1-.006.994l-.114.002a59 59 0 0 1-.88.004h-1.5a59 59 0 0 1-.994-.006l-.002-.114a59 59 0 0 1-.004-.88V15a59 59 0 0 1 .006-.994l.114-.002c.242-.004.523-.004.88-.004M11 27.5c0-1.4 0-2.1.273-2.635a2.5 2.5 0 0 1 1.092-1.092C12.9 23.5 13.6 23.5 15 23.5h1.5c1.4 0 2.1 0 2.635.273a2.5 2.5 0 0 1 1.092 1.092c.273.535.273 1.235.273 2.635V29c0 1.4 0 2.1-.273 2.635a2.5 2.5 0 0 1-1.092 1.092C18.6 33 17.9 33 16.5 33H15c-1.4 0-2.1 0-2.635-.273a2.5 2.5 0 0 1-1.092-1.092C11 31.1 11 30.4 11 29zm4-1h1.5a59 59 0 0 1 .994.006l.002.114c.004.242.004.523.004.88V29a59 59 0 0 1-.006.994l-.114.002a59 59 0 0 1-.88.004H15a59 59 0 0 1-.994-.006l-.002-.114A59 59 0 0 1 14 29v-1.5a59 59 0 0 1 .006-.994l.114-.002c.242-.004.523-.004.88-.004"/></g><path fill-rule="evenodd" d="M11 15c0-1.4 0-2.1.273-2.635a2.5 2.5 0 0 1 1.092-1.092C12.9 11 13.6 11 15 11h1.5c1.4 0 2.1 0 2.635.273a2.5 2.5 0 0 1 1.092 1.092C20.5 12.9 20.5 13.6 20.5 15v1.5c0 1.4 0 2.1-.273 2.635a2.5 2.5 0 0 1-1.092 1.092c-.535.273-1.235.273-2.635.273H15c-1.4 0-2.1 0-2.635-.273a2.5 2.5 0 0 1-1.092-1.092C11 18.6 11 17.9 11 16.5zm4-1h1.5a59 59 0 0 1 .994.006l.002.114c.004.242.004.523.004.88v1.5a59 59 0 0 1-.006.994l-.114.002a59 59 0 0 1-.88.004H15a59 59 0 0 1-.994-.006l-.002-.114A59 59 0 0 1 14 16.5V15a59 59 0 0 1 .006-.994l.114-.002C14.362 14 14.643 14 15 14" clip-rule="evenodd"/><path d="M23.576 24.117c-.076.184-.076.417-.076.883s0 .699.076.883a1 1 0 0 0 .541.54c.184.077.417.077.883.077s.699 0 .883-.076a1 1 0 0 0 .54-.541c.077-.184.077-.417.077-.883s0-.699-.076-.883a1 1 0 0 0-.541-.54c-.184-.077-.417-.077-.883-.077s-.699 0-.883.076a1 1 0 0 0-.54.541M23.5 31.5c0-.466 0-.699.076-.883a1 1 0 0 1 .541-.54C24.301 30 24.534 30 25 30s.699 0 .883.076a1 1 0 0 1 .54.541c.077.184.077.417.077.883s0 .699-.076.883a1 1 0 0 1-.541.54C25.699 33 25.466 33 25 33s-.699 0-.883-.076a1 1 0 0 1-.54-.541c-.077-.184-.077-.417-.077-.883M30.076 24.117C30 24.301 30 24.534 30 25s0 .699.076.883a1 1 0 0 0 .541.54c.184.077.417.077.883.077s.699 0 .883-.076a1 1 0 0 0 .54-.541C33 25.699 33 25.466 33 25s0-.699-.076-.883a1 1 0 0 0-.541-.54c-.184-.077-.417-.077-.883-.077s-.699 0-.883.076a1 1 0 0 0-.54.541M30 31.5c0-.466 0-.699.076-.883a1 1 0 0 1 .541-.54c.184-.077.417-.077.883-.077s.699 0 .883.076a1 1 0 0 1 .54.541c.077.184.077.417.077.883s0 .699-.076.883a1 1 0 0 1-.541.54c-.184.077-.417.077-.883.077s-.699 0-.883-.076a1 1 0 0 1-.54-.541C30 32.199 30 31.966 30 31.5M26.826 27.367c-.076.184-.076.417-.076.883s0 .699.076.883a1 1 0 0 0 .541.54c.184.077.417.077.883.077s.699 0 .883-.076a1 1 0 0 0 .54-.541c.077-.184.077-.417.077-.883s0-.699-.076-.883a1 1 0 0 0-.541-.54c-.184-.077-.417-.077-.883-.077s-.699 0-.883.076a1 1 0 0 0-.54.541"/></g><defs><clipPath id="a"><rect width="44" height="44" fill="#fff" rx="22"/></clipPath></defs></svg>