<svg viewBox="0 0 28 28" fill="none" xmlns="http://www.w3.org/2000/svg">
  <g transform="translate(1.5 5)">
    <path fill-rule="evenodd" clip-rule="evenodd" d="M7.49989 5.12106V14.5C7.49989 15.3284 6.82831 16 5.99989 16C5.17146 16 4.49989 15.3284 4.49989 14.5V5.12106L2.56043 7.06052C1.97465 7.6463 1.02513 7.6463 0.43934 7.06052C-0.146447 6.47473 -0.146447 5.52521 0.43934 4.93942L4.93934 0.439424C5.48837 -0.109601 6.35702 -0.144209 6.94618 0.335908L7.06043 0.439424L11.5604 4.93942C12.1462 5.52521 12.1462 6.47473 11.5604 7.06052C10.9746 7.6463 10.0251 7.6463 9.43934 7.06052L7.49989 5.12106ZM20.4999 12.8789V3.49997C20.4999 2.67154 19.8283 1.99997 18.9999 1.99997C18.1715 1.99997 17.4999 2.67154 17.4999 3.49997V12.8789L15.5604 10.9394C14.9746 10.3536 14.0251 10.3536 13.4393 10.9394C12.8536 11.5252 12.8536 12.4747 13.4393 13.0605L17.9393 17.5605C18.4884 18.1095 19.357 18.1442 19.9462 17.664L20.0604 17.5605L24.5604 13.0605C25.1462 12.4747 25.1462 11.5252 24.5604 10.9394C23.9746 10.3536 23.0251 10.3536 22.4393 10.9394L20.4999 12.8789Z" fill="currentColor"/>
  </g>
</svg>
