<svg viewBox="0 0 16 16" fill="none" xmlns="http://www.w3.org/2000/svg">
  <g transform="translate(1.84 1)">
    <path fill-rule="evenodd" clip-rule="evenodd" d="M5.41285 13.25V12.4014L5.07886 12.624C4.73421 12.8538 4.26859 12.7607 4.03882 12.416C3.80906 12.0714 3.90218 11.6057 4.24683 11.376L5.41285 10.5986V8.29903L3.42128 9.44886L3.33109 10.8473C3.30443 11.2607 2.94774 11.5742 2.53439 11.5475C2.12103 11.5208 1.80757 11.1642 1.83423 10.7508L1.86006 10.3502L1.12513 10.7745C0.766406 10.9817 0.307713 10.8587 0.100606 10.5C-0.106501 10.1413 0.0164058 9.68261 0.375125 9.47551L1.11006 9.05119L0.750245 8.87328C0.37894 8.68969 0.226775 8.23988 0.410365 7.86858C0.593956 7.49727 1.04376 7.34511 1.41507 7.5287L2.67128 8.14982L4.66289 6.99996L2.6714 5.85018L1.41519 6.4713C1.04389 6.65489 0.594079 6.50273 0.410488 6.13142C0.226898 5.76012 0.379063 5.31031 0.750368 5.12672L1.11019 4.94881L0.375248 4.52449C0.0165286 4.31739 -0.106378 3.85869 0.100729 3.49997C0.307836 3.14125 0.766529 3.01835 1.12525 3.22545L1.86019 3.64977L1.83435 3.2492C1.80769 2.83585 2.12116 2.47917 2.53451 2.45251C2.94787 2.42585 3.30455 2.73931 3.33121 3.15267L3.4214 4.55114L5.41285 5.7009V3.40137L4.24683 2.62402C3.90218 2.39426 3.80906 1.92863 4.03882 1.58398C4.26859 1.23934 4.73421 1.14621 5.07886 1.37598L5.41285 1.59863V0.75C5.41285 0.335786 5.74863 0 6.16285 0C6.57706 0 6.91285 0.335786 6.91285 0.75V1.59863L7.24683 1.37598C7.59148 1.14621 8.05711 1.23934 8.28687 1.58398C8.51663 1.92863 8.42351 2.39426 8.07886 2.62402L6.91285 3.40137V5.70095L8.90429 4.55119L8.99448 3.15272C9.02114 2.73937 9.37782 2.4259 9.79118 2.45256C10.2045 2.47922 10.518 2.8359 10.4913 3.24926L10.4655 3.64982L11.2004 3.22551C11.5592 3.0184 12.0179 3.14131 12.225 3.50003C12.4321 3.85875 12.3092 4.31744 11.9504 4.52455L11.2155 4.94886L11.5753 5.12677C11.9466 5.31036 12.0988 5.76017 11.9152 6.13148C11.7316 6.50278 11.2818 6.65495 10.9105 6.47136L9.65429 5.85023L7.66289 6.99996L9.65441 8.14977L10.9106 7.52864C11.2819 7.34505 11.7317 7.49722 11.9153 7.86852C12.0989 8.23983 11.9468 8.68964 11.5754 8.87323L11.2156 9.05114L11.9506 9.47545C12.3093 9.68256 12.4322 10.1413 12.2251 10.5C12.018 10.8587 11.5593 10.9816 11.2006 10.7745L10.4656 10.3502L10.4915 10.7507C10.5181 11.1641 10.2047 11.5208 9.7913 11.5474C9.37795 11.5741 9.02127 11.2606 8.99461 10.8473L8.90441 9.44881L6.91285 8.29898V10.5986L8.07886 11.376C8.42351 11.6057 8.51663 12.0714 8.28687 12.416C8.05711 12.7607 7.59148 12.8538 7.24683 12.624L6.91285 12.4014V13.25C6.91285 13.6642 6.57706 14 6.16285 14C5.74863 14 5.41285 13.6642 5.41285 13.25Z" fill="currentColor"/>
  </g>
</svg>
