<svg viewBox="0 0 28 28" fill="none" xmlns="http://www.w3.org/2000/svg">
  <path d="M20.5 7C21.3284 7 22 7.67157 22 8.5V17.8789L23.9395 15.9395C24.5252 15.3537 25.4748 15.3537 26.0606 15.9395C26.6463 16.5252 26.6463 17.4748 26.0606 18.0605L21.5606 22.5605L21.4463 22.6641C20.8571 23.1442 19.9885 23.1096 19.4395 22.5605L14.9395 18.0605C14.3537 17.4748 14.3537 16.5252 14.9395 15.9395C15.5252 15.3537 16.4748 15.3537 17.0606 15.9395L19 17.8789V8.5C19 7.67157 19.6716 7 20.5 7Z" fill="currentColor"/>
  <path opacity="0.32" d="M6.43945 5.43945C6.98848 4.89043 7.85714 4.85582 8.44629 5.33594L8.56055 5.43945L13.0605 9.93945C13.6463 10.5252 13.6463 11.4748 13.0605 12.0605C12.4748 12.6463 11.5252 12.6463 10.9395 12.0605L9 10.1211V19.5C9 20.3284 8.32843 21 7.5 21C6.67157 21 6 20.3284 6 19.5V10.1211L4.06055 12.0605C3.47476 12.6463 2.52524 12.6463 1.93945 12.0605C1.35367 11.4748 1.35367 10.5252 1.93945 9.93945L6.43945 5.43945Z" fill="currentColor"/>
</svg>
