<svg viewBox="0 0 28 28" fill="none" xmlns="http://www.w3.org/2000/svg">
<g id="28 / ic-trade-28">
<g id="Icon">
<path id="Shape" opacity="0.32" d="M18.2 26.2441H8.50901C7.66437 26.2441 7.24205 26.2441 6.88981 26.1806C5.24633 25.8841 3.96002 24.5978 3.66352 22.9543C3.59998 22.6021 3.59998 22.1797 3.59998 21.3351C3.59998 21.0341 3.59998 21.8837 3.61384 21.74C3.6772 21.0831 3.95536 20.4655 4.40523 19.9828C4.50365 19.8772 4.61633 19.7774 4.84169 19.578L7.21928 17.4738C7.79524 16.9641 8.08322 16.7092 8.40697 16.6153C8.6921 16.5326 8.99537 16.5363 9.27837 16.6261C9.59969 16.728 9.88128 16.9899 10.4444 17.5137L12.4253 19.3562C13.0142 19.904 13.3086 20.1779 13.6425 20.2784C13.9364 20.3669 14.2503 20.3631 14.542 20.2675C14.8733 20.1589 15.161 19.878 15.7365 19.3162L22.0075 13.1935C22.2926 12.9151 22.6753 12.7593 23.0738 12.7593C23.9167 12.7593 24.6 13.4426 24.6 14.2855V19.8441C24.6 22.0843 24.6 23.2044 24.164 24.0601C23.7805 24.8127 23.1686 25.4247 22.4159 25.8082C21.5603 26.2441 20.4402 26.2441 18.2 26.2441Z" fill="#8994A3"/>
<path id="Shape_2" d="M23.582 2.75586C24.3551 2.75602 24.9814 3.38315 24.9814 4.15625V8.89746C24.9813 9.67044 24.355 10.2967 23.582 10.2969C22.8089 10.2969 22.1817 9.67054 22.1816 8.89746V7.70801L17.9677 12.2227C17.9541 12.2372 17.94 12.2516 17.9257 12.2656L15.9648 14.1943C14.9995 15.1434 13.467 15.1934 12.4423 14.3086L9.35934 11.6455C9.13586 11.4527 8.8054 11.451 8.58004 11.6416L5.5234 14.2324C4.93357 14.7322 4.04966 14.6591 3.54977 14.0693C3.04994 13.4795 3.12302 12.5956 3.71286 12.0957L6.7695 9.50586C8.04692 8.42342 9.92212 8.43211 11.1894 9.52637L14.1328 12.0684L15.9394 10.292L20.3603 5.55664H18.8408C18.0677 5.55655 17.4414 4.92939 17.4414 4.15625C17.4414 3.38311 18.0677 2.75595 18.8408 2.75586L23.582 2.75586Z" fill="#8994A3"/>
</g>
</g>
</svg>
