<svg xmlns="http://www.w3.org/2000/svg" fill="none" viewBox="0 0 16 16"><path fill="currentColor" fill-rule="evenodd" d="M1.245 3.229C1 3.709 1 4.339 1 5.6v4.3c0 1.26 0 1.89.245 2.371.216.424.56.768.984.984.48.245 1.11.245 2.371.245h6.3c1.26 0 1.89 0 2.371-.245a2.25 2.25 0 0 0 .984-.984c.245-.48.245-1.11.245-2.371V8.1c0-1.26 0-1.89-.245-2.371a2.25 2.25 0 0 0-.984-.984c-.215-.11-.46-.17-.78-.204-.018-.6-.072-.99-.236-1.312a2.25 2.25 0 0 0-.984-.984C10.792 2 10.162 2 8.9 2H4.6c-1.26 0-1.89 0-2.371.245a2.25 2.25 0 0 0-.984.984M10.9 4.5H2.25c.002-.38.013-.592.098-.759a.9.9 0 0 1 .393-.393c.193-.098.445-.098.949-.098h6.12c.504 0 .756 0 .949.098a.9.9 0 0 1 .393.393c.085.167.096.378.098.76zM12 8.25a.75.75 0 1 0 0 1.5.75.75 0 0 0 0-1.5" clip-rule="evenodd"/></svg>